<svg xmlns="http://www.w3.org/2000/svg" viewBox="0 0 100 100">
  <defs>
    <style>
      .node { fill: #64748b; }
      .connection { fill: none; stroke: #94a3b8; stroke-width: 1.5; }
      .main-node { fill: #3b82f6; }
    </style>
  </defs>
  
  <!-- Network connections -->
  <line class="connection" x1="30" y1="30" x2="50" y2="50" />
  <line class="connection" x1="70" y1="30" x2="50" y2="50" />
  <line class="connection" x1="30" y1="70" x2="50" y2="50" />
  <line class="connection" x1="70" y1="70" x2="50" y2="50" />
  
  <line class="connection" x1="15" y1="20" x2="30" y2="30" />
  <line class="connection" x1="85" y1="20" x2="70" y2="30" />
  <line class="connection" x1="15" y1="80" x2="30" y2="70" />
  <line class="connection" x1="85" y1="80" x2="70" y2="70" />
  
  <line class="connection" x1="30" y1="30" x2="30" y2="70" />
  <line class="connection" x1="70" y1="30" x2="70" y2="70" />
  <line class="connection" x1="30" y1="30" x2="70" y2="30" />
  <line class="connection" x1="30" y1="70" x2="70" y2="70" />
  
  <!-- Network nodes -->
  <circle class="node" cx="15" cy="20" r="3" />
  <circle class="node" cx="85" cy="20" r="3" />
  <circle class="node" cx="15" cy="80" r="3" />
  <circle class="node" cx="85" cy="80" r="3" />
  
  <circle class="node" cx="30" cy="30" r="4" />
  <circle class="node" cx="70" cy="30" r="4" />
  <circle class="node" cx="30" cy="70" r="4" />
  <circle class="node" cx="70" cy="70" r="4" />
  
  <!-- Central node -->
  <circle class="main-node" cx="50" cy="50" r="6" />
</svg>